<svg style="fill:rgb(77, 188, 188);" xmlns="http://www.w3.org/2000/svg" enable-background="new 0 0 64 64" viewBox="0 0 64 64"><path d="M44.766,48.115c-2.271-1.099-19.095-17.769-19.881-18.626c-0.779-0.86,13.073-1.725,14.322-2.033
		c1.253-0.316,1.724-0.864,0.784-2.508s3.286-9.076,4.93-11.66c1.644-2.581-4.775-4.929-6.259-5.714
		c-1.487-0.78-8.532,2.428-12.837,4.387c-4.301,1.952-7.823-0.396-9.312-1.101c-1.489-0.703-4.617-0.31-2.503,1.174
		c2.113,1.49,1.644,6.104,1.644,17.14c0,11.033-12.158,24.835-12.523,25.59c-1.094,2.272,0.784,1.724,0.784,1.724
		c7.747,0.08,15.414-19.566,15.495-22.617c0.075-3.054,1.564-2.974,3.128-2.349c1.567,0.629,21.129,24.261,22.697,24.577
		c1.563,0.309,14.478-0.866,15.885-1.409C62.529,54.139,47.035,49.209,44.766,48.115z M20.425,26.906
		c-0.939-0.235,0.47-11.271,0.47-11.271c1.803,0.55,14.085-2.582,15.259-1.958c1.175,0.631-1.094,9.941-1.563,10.961
		C34.122,25.652,21.364,27.14,20.425,26.906z"/></svg>